<svg width="112" height="72" viewBox="0 0 112 72" fill="none" xmlns="http://www.w3.org/2000/svg">
<path d="M69.138 8.12632V33.3189C69.138 37.3605 69.1082 41.4021 69.1746 45.4436C69.1746 45.9451 69.676 46.4399 69.945 46.9314C70.1443 46.4333 70.5229 45.9351 70.5229 45.4403C70.5561 33.9765 70.5649 22.5137 70.5494 11.0521V8.94327C71.9509 9.19234 72.542 9.78347 72.5221 11.2447C72.4656 22.6521 72.4889 34.0595 72.4955 45.4669C72.4955 46.3004 72.19 47.413 73.9335 47.1041V10.9059C75.4378 11.165 75.926 11.8159 75.9028 13.1642C75.853 24.017 75.9028 34.8731 75.843 45.7093C75.843 47.1506 76.3312 47.5325 77.6894 47.7484C82.3387 48.5022 86.988 49.4354 91.6373 50.2988L91.5477 50.7605C83.4446 50.2955 75.3482 49.6546 67.2385 49.4321C59.1288 49.2096 50.9659 49.1996 42.8396 49.4321C34.7133 49.6645 26.5139 50.3022 17.9326 50.7837C19.4735 50.3387 20.6724 49.9701 21.8812 49.6513C23.09 49.3325 24.342 49.0369 25.5774 48.748C27.1083 48.386 29.1939 48.5089 30.0208 47.5458C30.7979 46.6359 30.2898 44.5902 30.2898 43.0459C30.2898 35.5705 30.2898 28.1017 30.2898 20.6197C30.2898 20.1149 30.3562 19.6234 30.3927 19.112H30.8776C30.9274 20.1082 30.9739 21.1045 31.0403 22.4329C32.9333 21.3337 34.6635 20.3972 36.2974 19.3179C36.6295 19.1086 36.6295 18.3448 36.6759 17.8234C36.6779 17.1451 36.7615 16.4694 36.925 15.811C37.825 17.4714 36.852 20.4038 40.2858 20.2909V11.2945L40.8138 11.258L41.1459 14.6055C43.0355 13.5129 44.7989 12.5465 46.4959 11.4572C46.7981 11.2646 46.8513 10.5871 46.8978 10.1288C46.9642 9.46466 46.9144 8.80047 47.2299 8.05326C47.0904 10.6237 47.9206 12.3705 50.8829 12.9217C50.8829 11.3709 51.0888 9.77351 50.8397 8.27244C50.2851 4.89173 51.4607 2.70656 54.7086 1.56416C55.6152 1.23207 56.4156 0.614373 57.4882 0V46.161C58.9162 46.3801 58.9361 46.3801 58.9361 44.8824C58.9361 37.6273 58.9361 30.3721 58.9361 23.117V1.01621C60.5401 1.21214 60.8822 2.0623 60.8789 3.43052C60.839 17.2168 60.8324 31.0042 60.859 44.7927C60.859 45.5997 60.5833 46.7156 62.2172 46.327V2.87925C63.7415 3.15489 64.2729 3.87553 64.2662 5.35002C64.2098 18.1987 64.2264 31.0441 64.2231 43.8728C64.1894 44.5378 64.2127 45.2044 64.2928 45.8654C64.3426 46.141 64.7444 46.3569 64.9836 46.6026C65.2061 46.3536 65.588 46.1244 65.6212 45.8521C65.6834 45.0789 65.6989 44.3026 65.6677 43.5275C65.6677 33.3388 65.7706 23.1469 65.568 12.9749C65.5249 10.2716 66.5245 8.91006 69.138 8.12632ZM36.6959 42.0364C35.052 42.9762 33.7668 43.8363 32.3787 44.4739C30.8045 45.1979 30.7414 46.3038 31.1931 47.7949C32.7805 47.6355 34.3214 47.5325 35.8424 47.2868C36.045 47.2117 36.2258 47.0875 36.3685 46.9251C36.5111 46.7628 36.611 46.5675 36.6593 46.3569C36.7523 45.0485 36.6959 43.7201 36.6959 42.0364ZM46.735 21.2905C46.5557 21.2905 46.4262 21.2506 46.3465 21.2905C45.1908 21.9348 44.0373 22.5857 42.8861 23.2432C40.7707 24.452 40.578 24.9668 41.3219 27.6567C42.4477 27.0191 43.4839 26.2686 44.6429 25.8136C46.7948 24.9734 47.3561 23.479 46.735 21.2905ZM46.735 25.6841C46.486 25.704 46.3598 25.6841 46.2734 25.7273C45.1144 26.3715 43.9488 27.0191 42.813 27.6833C40.7806 28.8589 40.5149 29.6161 41.312 31.9441C41.4716 31.9217 41.6278 31.8793 41.7769 31.8179C42.7909 31.2511 43.7982 30.6755 44.7989 30.091C47.2133 28.6862 47.2099 28.6862 46.735 25.6841ZM46.6885 30.081C46.4528 30.1043 46.3266 30.081 46.2402 30.1275C45.0845 30.7718 43.9156 31.4127 42.7865 32.0869C40.7939 33.2724 40.5216 34.0495 41.3585 36.4306C42.5208 35.7664 43.6665 35.1288 44.8056 34.4746C47.2 33.1031 47.2365 33.0134 46.6885 30.081ZM46.6022 12.3273C45.1808 13.1409 43.8956 13.8715 42.6171 14.6154C40.8138 15.6615 40.505 16.6943 41.4016 18.8397C42.6038 18.1755 43.8027 17.488 44.9882 16.8006C47.1734 15.5287 47.283 15.253 46.6022 12.3273ZM46.6719 16.6976C45.234 17.508 43.9388 18.2319 42.647 18.9625C40.8105 20.0053 40.4884 21.0647 41.3784 23.117C41.4919 23.1184 41.6046 23.0981 41.7105 23.0572C42.7665 22.4595 43.8204 21.8573 44.872 21.2506C47.2431 19.8758 47.2564 19.8393 46.6719 16.6976ZM41.2854 45.2577C42.6636 44.4739 43.9023 43.7732 45.1344 43.0625C47.1269 41.9102 47.3893 41.1464 46.559 38.7188L42.9691 40.7611C40.7341 42.0496 40.6112 42.3519 41.2854 45.2676V45.2577ZM41.2422 40.884C42.6337 40.0969 43.8757 39.4062 45.1078 38.6988C47.117 37.5398 47.3926 36.7328 46.5856 34.4514C46.4785 34.4474 46.3715 34.4631 46.2701 34.4978C45.2141 35.0912 44.1613 35.6923 43.1119 36.3011C40.6976 37.7059 40.6644 37.7856 41.2422 40.894V40.884ZM31.2031 31.1171C32.4484 30.4164 33.6406 29.7622 34.8195 29.0781C36.9317 27.846 37.1442 27.2549 36.387 24.628C35.3708 25.2158 34.431 25.9232 33.3749 26.3317C31.1964 27.1785 30.4359 28.6298 31.2031 31.1171ZM31.1632 44.3677C32.455 43.6204 33.6273 42.9496 34.7963 42.2655C36.9483 41.0102 37.121 40.5419 36.4003 37.7989C35.331 38.4165 34.348 39.1571 33.2454 39.5822C31.0868 40.4124 30.5787 41.9268 31.1698 44.3677H31.1632ZM31.2064 35.5307C32.4418 34.8233 33.6207 34.1691 34.783 33.4816C36.9848 32.1765 37.1077 31.8212 36.4136 29.0183C35.2446 29.6825 34.1089 30.3268 32.9798 30.9777C30.6485 32.3226 30.6219 32.3891 31.2064 35.5307ZM36.5199 20.1547C35.1915 20.9086 34.0624 21.5529 32.9299 22.2071C30.6883 23.4956 30.5522 23.8476 31.2396 26.6804C32.3122 26.0793 33.3583 25.5114 34.3878 24.917C36.9582 23.4391 36.9582 23.4358 36.5331 20.1547H36.5199ZM31.1366 39.7117C31.3824 39.7117 31.5086 39.7117 31.5916 39.6785C32.5879 39.1173 33.5842 38.556 34.5804 37.9749C37.0213 36.5535 37.0213 36.5402 36.4999 33.558C36.397 33.558 36.2708 33.5215 36.1911 33.558C35.1384 34.1425 34.0823 34.727 33.0362 35.3347C30.6883 36.7162 30.6916 36.7229 31.1366 39.7117ZM41.0729 46.2772L41.2256 46.6093C42.8429 46.6093 44.4602 46.6525 46.0742 46.5728C46.2635 46.5118 46.4347 46.4045 46.5721 46.2607C46.7095 46.1169 46.8089 45.9411 46.8612 45.7492C46.9325 44.8011 46.9447 43.8494 46.8978 42.8998L41.0729 46.2772ZM47.7147 34.4148C47.2465 37.8487 47.8243 38.732 50.7866 39.177C51.112 35.9591 51.0456 35.8428 47.7048 34.4148H47.7147ZM50.7633 17.3519C51.1253 13.9213 50.8198 13.4597 47.6981 12.5664C47.4225 16.0534 46.9476 15.6748 50.7633 17.3519ZM50.7135 21.7521C51.1984 18.4843 50.8895 18.0061 47.7247 16.9235C47.3428 20.4038 47.0705 20.1016 50.7135 21.7521ZM50.7534 34.9163C51.1419 31.4924 50.8198 31.0075 47.7048 30.1574C47.3826 33.568 46.9974 33.3023 50.7633 34.9163H50.7534ZM47.738 21.3005C47.1601 24.4188 47.738 25.3487 50.6969 25.9763C51.2482 22.9975 50.8729 22.4063 47.738 21.3137V21.3005ZM47.738 38.8715C47.1834 42.0264 47.738 42.9031 50.7268 43.5773C51.2249 40.5187 50.9194 40.0338 47.7313 38.8848L47.738 38.8715ZM50.7268 30.4397C51.205 27.225 50.76 26.5542 47.6915 25.7239C47.2598 29.0017 47.5553 29.4733 50.7168 30.453L50.7268 30.4397ZM37.5792 47.1871C38.6652 46.7322 40.1264 47.8081 40.3157 45.9351C40.5448 43.6404 39.8474 42.7636 37.5792 42.5046V47.1871ZM37.7021 20.4038C37.1176 23.3926 37.473 24.0336 40.1264 24.8207C40.6943 21.8584 40.3456 21.2307 37.7021 20.4038ZM37.6523 37.9383C37.2405 41.2593 37.6025 41.8736 40.2061 42.3519C40.5515 39.1638 40.402 38.908 37.6523 37.9383ZM37.6988 29.1013C37.1542 32.2795 37.4863 32.8706 40.1563 33.6112C40.6511 30.4729 40.5913 30.36 37.6988 29.1013ZM40.1629 29.2242C40.6445 26.0992 40.319 25.5214 37.6855 24.8439C37.1475 27.8726 37.4995 28.477 40.1629 29.2242ZM37.7187 33.5779C37.0844 36.5668 37.7187 37.6395 40.2161 37.8952C40.5282 34.727 40.3721 34.4547 37.7187 33.5779ZM50.6703 46.3669C50.9261 44.733 50.1988 44.0156 47.6616 43.3016V46.3669H50.6703Z" fill="white"/>
<path d="M0.0332101 64.0178L0 61.8692H0.664187L0.899972 63.0315C0.917598 63.0937 0.954883 63.1484 1.00624 63.1876C1.0526 63.2313 1.10138 63.2723 1.15236 63.3105C1.30308 63.4062 1.45945 63.4927 1.62062 63.5695C1.79151 63.6541 1.97069 63.7209 2.15529 63.7688C2.34489 63.8192 2.54024 63.8449 2.73645 63.8451C3.22334 63.8735 3.70583 63.7391 4.10799 63.4632C4.27079 63.3421 4.40114 63.1826 4.48746 62.9989C4.57379 62.8153 4.61341 62.6132 4.60281 62.4105C4.61372 62.1076 4.50656 61.8123 4.30393 61.5869C4.08182 61.351 3.80939 61.1683 3.50691 61.0522C3.17481 60.9194 2.86929 60.8032 2.55712 60.7201C2.24621 60.6249 1.94029 60.5141 1.64054 60.3881C1.22059 60.2236 0.852456 59.9495 0.574521 59.5944C0.328549 59.2453 0.194314 58.8299 0.189571 58.4029C0.184827 57.976 0.309798 57.5577 0.547954 57.2033C0.804791 56.8544 1.14819 56.5785 1.54423 56.4029C1.97621 56.2005 2.44874 56.0994 2.92574 56.1074C3.2189 56.1071 3.51176 56.126 3.80247 56.1638C4.08143 56.2015 4.3471 56.248 4.59949 56.3033L5.32013 56.4727V58.5317H4.65595L4.4268 57.4291C4.40924 57.3678 4.37331 57.3133 4.32385 57.273C4.27638 57.2303 4.22648 57.1904 4.17441 57.1535C4.07112 57.0818 3.95964 57.0227 3.84232 56.9775C3.70816 56.9179 3.56783 56.8734 3.42388 56.8446C3.26231 56.8105 3.09753 56.7938 2.93238 56.7948C2.49417 56.766 2.0587 56.8827 1.69368 57.1269C1.56244 57.2219 1.45634 57.3474 1.38458 57.4927C1.31283 57.6379 1.27757 57.7985 1.28188 57.9605C1.28108 58.2501 1.36413 58.5339 1.52099 58.7774C1.74973 59.0818 2.07153 59.3034 2.43756 59.4084C2.73645 59.518 3.02869 59.6209 3.31761 59.7172C3.60653 59.8135 3.9187 59.9331 4.26076 60.0759C4.51511 60.1854 4.75675 60.3224 4.9814 60.4844C5.21585 60.6618 5.40856 60.8886 5.54596 61.1485C5.70538 61.4557 5.78206 61.799 5.76846 62.1448C5.76363 62.555 5.64896 62.9563 5.43637 63.3071C5.19835 63.6972 4.85227 64.0099 4.44009 64.2071C3.87157 64.4557 3.25325 64.5694 2.6335 64.5392C2.35822 64.5376 2.08367 64.5109 1.81323 64.4595C1.52763 64.4097 1.23207 64.3433 0.933183 64.2636L0.0332101 64.0178Z" fill="white"/>
<path d="M6.79845 64.3397V63.9279L7.46264 63.7054C7.52501 63.6873 7.58201 63.6542 7.62868 63.609C7.65015 63.5847 7.6665 63.5563 7.67677 63.5254C7.68704 63.4946 7.69101 63.4621 7.68846 63.4297V56.7646C7.69114 56.7296 7.68597 56.6945 7.67333 56.6617C7.66069 56.629 7.6409 56.5994 7.6154 56.5753C7.56589 56.529 7.50854 56.4919 7.44603 56.4657L6.73535 56.1336V55.7683L8.81093 55.6687V61.3375L11.1887 59.0328L10.5644 58.7007V58.2956H13.0119V58.7007L12.3212 58.9431C12.2411 58.9688 12.165 59.0057 12.0953 59.0527C12.0201 59.1034 11.949 59.16 11.8828 59.2221L10.3452 60.6235L12.3776 63.4397C12.423 63.5014 12.4793 63.5543 12.5437 63.5958C12.6105 63.6424 12.6831 63.6803 12.7595 63.7087L13.3407 63.9212V64.333H10.8699V63.9212L11.2452 63.6755L9.58471 61.3774L8.82422 61.6796V63.4231C8.8215 63.4557 8.82572 63.4886 8.8366 63.5195C8.84747 63.5504 8.86476 63.5786 8.88732 63.6024C8.93238 63.6446 8.98545 63.6774 9.0434 63.6987L9.6146 63.9212V64.333L6.79845 64.3397Z" fill="white"/>
<path d="M13.961 66.9534L14.0008 65.7977H14.2632C14.3247 65.8289 14.3879 65.8566 14.4525 65.8808L14.7016 65.9638C14.7912 65.9903 14.8709 66.0103 14.9473 66.0269C15.0042 66.039 15.0619 66.0468 15.12 66.0501C15.2638 66.053 15.4075 66.0396 15.5484 66.0103C15.6617 65.9843 15.7681 65.9345 15.8606 65.8642C15.9664 65.7774 16.0563 65.6729 16.1262 65.5553C16.2283 65.3875 16.315 65.2107 16.3853 65.0273C16.4783 64.8059 16.589 64.5236 16.7174 64.1804L16.3255 63.5163L14.4126 59.1625C14.3879 59.0986 14.3452 59.0433 14.2898 59.0031C14.2342 58.9656 14.1753 58.9333 14.1138 58.9068L13.6787 58.7042V58.2991H16.3355V58.7042L15.5085 58.9799L16.9033 62.1248L17.1723 62.8255H17.2686L18.6601 59.1459L17.8963 58.7042V58.2991H20.1446V58.7042L19.6464 59.0363L19.4771 59.1526C19.4204 59.1886 19.3772 59.2423 19.3542 59.3053L17.0594 65.3129C16.9213 65.7158 16.7133 66.0913 16.445 66.4221C16.2518 66.6576 16.003 66.8413 15.7211 66.9567C15.4587 67.0544 15.1808 67.104 14.9008 67.1029C14.803 67.1014 14.7054 67.0936 14.6086 67.0796C14.4826 67.0686 14.3574 67.0509 14.2333 67.0265C14.141 67.0085 14.05 66.984 13.961 66.9534Z" fill="white"/>
<path d="M20.5731 64.3397V63.9279L21.4199 63.7054C21.4798 63.6879 21.5346 63.6559 21.5793 63.6124C21.6016 63.5878 21.6187 63.5589 21.6296 63.5275C21.6404 63.4961 21.6448 63.4629 21.6424 63.4297V56.7646C21.6451 56.7296 21.6399 56.6945 21.6273 56.6617C21.6146 56.629 21.5948 56.5994 21.5693 56.5753C21.5181 56.5297 21.4598 56.4927 21.3966 56.4657L20.5332 56.1336V55.7683L22.7582 55.6687V63.4364C22.7565 63.4703 22.7622 63.5041 22.7748 63.5357C22.7874 63.5672 22.8067 63.5956 22.8313 63.619C22.877 63.6612 22.9314 63.693 22.9907 63.712L23.8076 63.9345V64.3463L20.5731 64.3397Z" fill="white"/>
<path d="M24.6611 64.3396V63.9278L25.508 63.7053C25.5702 63.6885 25.6272 63.6566 25.674 63.6123C25.6963 63.5877 25.7134 63.5588 25.7243 63.5274C25.7351 63.496 25.7395 63.4628 25.7371 63.4296V59.5209C25.74 59.4865 25.7355 59.4518 25.7241 59.4192C25.7127 59.3866 25.6945 59.3567 25.6707 59.3316C25.6194 59.2843 25.5581 59.2491 25.4914 59.2287L24.6711 58.953V58.5512L26.8596 58.2457V63.4296C26.8563 63.498 26.8802 63.5648 26.926 63.6156C26.9679 63.6588 27.0207 63.6898 27.0788 63.7053L27.919 63.9278V64.3396H24.6611ZM26.1888 57.1199C26.0512 57.1205 25.9152 57.091 25.7903 57.0335C25.6704 56.9768 25.5674 56.8898 25.4914 56.7811C25.4165 56.6644 25.3783 56.5279 25.3818 56.3893C25.3755 56.2851 25.3939 56.1808 25.4354 56.085C25.477 55.9893 25.5405 55.9046 25.6209 55.838C25.7817 55.709 25.9827 55.6408 26.1888 55.6454C26.4057 55.6357 26.6196 55.6988 26.7965 55.8247C26.8745 55.8863 26.9365 55.9659 26.977 56.0568C27.0174 56.1476 27.0353 56.2469 27.029 56.3461C27.0327 56.4921 26.9947 56.6361 26.9194 56.7612C26.8467 56.8761 26.7431 56.9681 26.6205 57.0269C26.4858 57.091 26.3379 57.1229 26.1888 57.1199Z" fill="white"/>
<path d="M28.7797 64.3395V63.9277L29.4638 63.7052C29.525 63.6884 29.581 63.6564 29.6265 63.6122C29.6691 63.5612 29.6905 63.4958 29.6863 63.4295V59.471C29.6892 59.4365 29.6847 59.4019 29.6733 59.3692C29.6618 59.3366 29.6436 59.3068 29.6199 59.2817C29.5672 59.2347 29.5064 59.1975 29.4406 59.1721L28.7764 58.8964V58.4979L30.6959 58.1924V59.1488H30.7689C30.95 58.8905 31.1747 58.6657 31.4331 58.4847C31.6358 58.3516 31.8608 58.256 32.0973 58.2024C32.3155 58.1552 32.5382 58.1318 32.7615 58.1326C33.0964 58.1283 33.4279 58.1998 33.7312 58.3419C34.026 58.4869 34.2693 58.7187 34.4286 59.006C34.6161 59.3651 34.7065 59.7669 34.6909 60.1717V63.4063C34.6852 63.4794 34.7078 63.5519 34.754 63.6089C34.7986 63.6534 34.8533 63.6865 34.9134 63.7052L35.5212 63.9277V64.3395H32.7648V63.9277L33.3393 63.7052C33.401 63.6824 33.4575 63.6474 33.5054 63.6022C33.5306 63.5766 33.5499 63.5458 33.562 63.512C33.574 63.4781 33.5785 63.442 33.5751 63.4063V60.6632C33.58 60.3604 33.5477 60.0581 33.4788 59.7632C33.4285 59.5339 33.2947 59.3315 33.1035 59.1953C32.8508 59.0468 32.559 58.9785 32.2667 58.9994C32.0054 59.0021 31.746 59.0424 31.4962 59.119C31.2326 59.1991 31.0005 59.3593 30.832 59.5772V63.4295C30.8299 63.4632 30.835 63.4969 30.8471 63.5284C30.8591 63.5599 30.8778 63.5885 30.9018 63.6122C30.9487 63.6545 31.0042 63.6862 31.0645 63.7052L31.5859 63.9277V64.3395H28.7797Z" fill="white"/>
<path d="M39.3325 64.4658C38.8208 64.4749 38.3154 64.3526 37.8646 64.1104C37.4208 63.8754 37.0558 63.5151 36.8152 63.0743C36.5465 62.5476 36.4151 61.9616 36.4333 61.3706C36.4249 60.8055 36.5513 60.2466 36.8019 59.7401C37.0341 59.2727 37.3858 58.8751 37.8215 58.5877C38.2748 58.3004 38.8025 58.1526 39.3391 58.1626C39.8147 58.148 40.2853 58.2628 40.7007 58.4947C41.0633 58.701 41.362 59.0032 41.5641 59.3681C41.7633 59.7301 41.8662 60.1372 41.863 60.5504C41.863 60.6002 41.863 60.6633 41.863 60.7397C41.863 60.816 41.863 60.8924 41.8464 60.9655C41.8432 61.0306 41.8331 61.0951 41.8165 61.1581H37.5259L37.5591 60.5736H40.6775C40.6849 60.2506 40.6389 59.9285 40.5413 59.6205C40.4632 59.3712 40.3087 59.1528 40.0996 58.9962C39.8579 58.8371 39.5717 58.7591 39.2827 58.7737C38.9948 58.7631 38.71 58.8357 38.4624 58.9829C38.2486 59.124 38.073 59.3156 37.951 59.5408C37.8227 59.7787 37.7331 60.0353 37.6853 60.3013C37.633 60.5682 37.6063 60.8396 37.6056 61.1116C37.5983 61.5488 37.668 61.9838 37.8115 62.3968C37.9337 62.7605 38.1658 63.0773 38.4757 63.3034C38.8479 63.5425 39.2859 63.6587 39.7277 63.6355C40.0018 63.639 40.2746 63.5963 40.5347 63.5093C40.7658 63.4331 40.9884 63.3329 41.1988 63.2104C41.3682 63.1098 41.5312 62.9989 41.687 62.8783H41.8431V63.5226C41.509 63.783 41.1429 63.9995 40.7538 64.1669C40.3069 64.3671 39.8222 64.469 39.3325 64.4658Z" fill="white"/>
<path d="M46.0684 64.3397V63.9179L46.6429 63.6655C46.7089 63.636 46.7682 63.5935 46.8173 63.5404C46.8664 63.4873 46.9042 63.4248 46.9285 63.3567L49.21 57.5118L49.8741 56.1835H50.5084L53.3412 63.3832C53.3711 63.4479 53.4078 63.5091 53.4508 63.5659C53.4905 63.6226 53.5459 63.6665 53.6102 63.6921L54.2046 63.9279V64.3496H51.2291V63.9279L52.1722 63.5958L50.1631 58.4517L49.9472 57.6945H49.8509L47.6358 63.5659L48.5889 63.9212V64.343L46.0684 64.3397ZM48.3133 61.5169L48.5889 60.7365H51.1726L51.4483 61.5169H48.3133Z" fill="white"/>
<path d="M54.7225 64.3397V63.9279L55.4132 63.7054C55.4732 63.6879 55.5279 63.6559 55.5726 63.6124C55.5955 63.588 55.6132 63.5593 55.6247 63.5279C55.6361 63.4965 55.641 63.4631 55.639 63.4297V59.5376C55.6414 59.4534 55.6117 59.3715 55.556 59.3084C55.5057 59.2575 55.4459 59.2169 55.38 59.1889L54.6826 58.8966V58.4981L56.6752 58.1926V59.4977H56.7416C56.9319 59.2182 57.1463 58.956 57.3825 58.714C57.5517 58.5354 57.752 58.3891 57.9737 58.2823C58.164 58.1933 58.3713 58.1469 58.5814 58.1461C58.767 58.146 58.9519 58.1671 59.1327 58.2092C59.3177 58.2509 59.4891 58.3389 59.6308 58.4649V59.863H58.9467L58.784 59.4313C58.7355 59.3274 58.6486 59.2465 58.5415 59.2055C58.4238 59.1515 58.2958 59.1232 58.1663 59.1225C57.9676 59.1183 57.7715 59.1677 57.5984 59.2653C57.4321 59.3607 57.281 59.4805 57.1501 59.6206C57.0172 59.7645 56.891 59.9073 56.7715 60.049V63.4297C56.7674 63.4952 56.788 63.5597 56.8292 63.6108C56.8704 63.6618 56.9292 63.6955 56.994 63.7054L57.8641 63.9279V64.3397H54.7225Z" fill="white"/>
<path d="M65.3127 62.842H65.4821V63.4796C65.1722 63.7326 64.8385 63.955 64.4858 64.1438C64.0714 64.369 63.6058 64.4834 63.1342 64.4759C62.6127 64.4873 62.0991 64.3465 61.6564 64.0707C61.2402 63.8073 60.9065 63.4321 60.6933 62.9881C60.4628 62.4948 60.3491 61.955 60.3612 61.4107C60.3567 60.9607 60.4473 60.5148 60.6269 60.1022C60.972 59.3314 61.5978 58.721 62.377 58.3953C62.7568 58.2368 63.1644 58.1555 63.5759 58.1561C63.8364 58.1528 64.0963 58.1818 64.3497 58.2425C64.5433 58.2894 64.7323 58.3539 64.9142 58.4351L65.2862 58.6111L65.2463 59.7436H64.9939C64.7947 59.6273 64.5987 59.5078 64.4094 59.3816C64.2116 59.2486 64.0001 59.1372 63.7785 59.0495C63.5241 58.9581 63.255 58.9142 62.9848 58.92C62.8237 58.9256 62.6651 58.9605 62.5165 59.0229C62.3562 59.0788 62.2117 59.1722 62.0947 59.2952C62.0002 59.4044 61.9178 59.5236 61.849 59.6506C61.752 59.8331 61.6827 60.0289 61.6431 60.2317C61.5825 60.5423 61.5547 60.8585 61.5601 61.1749C61.5221 61.8113 61.7 62.442 62.0649 62.9649C62.2416 63.181 62.4671 63.3522 62.7228 63.4642C62.9786 63.5762 63.2573 63.6259 63.536 63.6091C63.7802 63.6096 64.0224 63.5646 64.25 63.4763C64.463 63.3947 64.6658 63.2888 64.8544 63.1608C65.0437 63.0479 65.1832 62.9383 65.3127 62.842Z" fill="white"/>
<path d="M66.4125 63.9279L67.0767 63.7054C67.1395 63.6864 67.1965 63.6522 67.2427 63.6057C67.2812 63.558 67.3002 63.4975 67.2959 63.4364V56.7646C67.2987 56.7302 67.2943 56.6955 67.2829 56.6629C67.2714 56.6303 67.2532 56.6004 67.2295 56.5753C67.1787 56.529 67.1203 56.4919 67.0568 56.4657L66.3428 56.1336V55.7683L68.4184 55.6687V59.1557C68.6012 58.8989 68.8257 58.6744 69.0825 58.4915C69.2783 58.3589 69.4966 58.2633 69.7268 58.2092C69.9344 58.1663 70.1458 58.1441 70.3578 58.1428C70.6937 58.1389 71.0262 58.2104 71.3308 58.352C71.6258 58.4979 71.87 58.7294 72.0315 59.0162C72.2179 59.3756 72.3072 59.7774 72.2906 60.1818V63.4065C72.2879 63.4424 72.2924 63.4786 72.3038 63.5128C72.3152 63.547 72.3333 63.5786 72.357 63.6057C72.4003 63.6494 72.4524 63.6833 72.5097 63.7054L73.1274 63.9279V64.3397H70.3744V63.9279L70.9456 63.7054C71.0053 63.6842 71.0597 63.6502 71.105 63.6057C71.1287 63.5786 71.1468 63.547 71.1582 63.5128C71.1696 63.4786 71.1741 63.4424 71.1714 63.4065V60.6634C71.177 60.3604 71.1435 60.0579 71.0718 59.7634C71.0189 59.5344 70.8843 59.3325 70.6932 59.1955C70.4407 59.0466 70.1487 58.9783 69.8563 58.9996C69.5939 59.0015 69.3333 59.0418 69.0825 59.1191C68.8179 59.1971 68.5851 59.3577 68.4184 59.5774V63.4297C68.4155 63.4611 68.4194 63.4927 68.4297 63.5225C68.44 63.5523 68.4565 63.5795 68.4781 63.6024C68.5246 63.6461 68.5786 63.6809 68.6375 63.7054L69.1656 63.9279V64.3397H66.3992L66.4125 63.9279Z" fill="white"/>
<path d="M73.957 64.3395V63.9278L74.8039 63.7052C74.8651 63.6885 74.9211 63.6565 74.9666 63.6123C74.9895 63.5879 75.0072 63.5592 75.0186 63.5278C75.03 63.4964 75.0349 63.463 75.033 63.4296V59.5209C75.0353 59.4865 75.0306 59.452 75.0191 59.4194C75.0077 59.3869 74.9899 59.357 74.9666 59.3316C74.9143 59.2856 74.8534 59.2506 74.7873 59.2286L73.967 58.953V58.5512L76.1555 58.2456V63.4296C76.1513 63.4975 76.174 63.5643 76.2186 63.6156C76.2604 63.6588 76.3132 63.6897 76.3713 63.7052L77.2149 63.9278V64.3395H73.957ZM75.4913 57.1198C75.3538 57.1197 75.218 57.0903 75.0928 57.0335C74.9733 56.9776 74.8712 56.8904 74.7972 56.7811C74.7194 56.6656 74.6799 56.5285 74.6843 56.3892C74.6784 56.2847 74.6973 56.1804 74.7395 56.0846C74.7816 55.9887 74.8458 55.9043 74.9267 55.838C75.0864 55.7092 75.2863 55.641 75.4913 55.6454C75.7093 55.6352 75.9244 55.6983 76.1024 55.8247C76.1798 55.8868 76.2412 55.9666 76.2817 56.0573C76.3221 56.1479 76.3403 56.2469 76.3348 56.3461C76.3385 56.4921 76.3005 56.6361 76.2252 56.7612C76.1521 56.8769 76.0471 56.9691 75.923 57.0269C75.7884 57.0913 75.6405 57.1232 75.4913 57.1198Z" fill="white"/>
<path d="M82.0824 58.3157L82.0426 58.9533H79.9504V62.8753C79.9476 62.9567 79.9646 63.0376 79.9999 63.1111C80.0351 63.1845 80.0877 63.2483 80.153 63.2971C80.2908 63.4069 80.4504 63.4861 80.6212 63.5295C80.7678 63.574 80.9197 63.5986 81.0729 63.6026C81.2278 63.6002 81.3819 63.5778 81.5311 63.5362C81.6601 63.508 81.7858 63.4668 81.9064 63.4133H82.099V63.8716C81.9808 63.9454 81.8589 64.013 81.7337 64.0742C81.5388 64.1721 81.3367 64.2554 81.1293 64.3232C80.9103 64.3991 80.6803 64.4384 80.4485 64.4395C80.1752 64.4424 79.9037 64.394 79.6482 64.2967C79.4186 64.2131 79.2141 64.0725 79.0537 63.8882C78.9029 63.7079 78.8226 63.479 78.8279 63.2439V58.9533H77.8516V58.4253C78.0641 58.392 78.2501 58.3555 78.4062 58.3157C78.5546 58.2822 78.6878 58.2005 78.7847 58.0832C78.8939 57.9166 78.9505 57.7211 78.9475 57.522L79.0039 56.6984L79.9504 56.519V58.3024L82.0824 58.3157Z" fill="white"/>
<path d="M85.7823 64.4657C85.2707 64.474 84.7655 64.3517 84.3144 64.1104C83.8743 63.8739 83.5129 63.5137 83.275 63.0743C83.0074 62.5473 82.8772 61.9613 82.8964 61.3706C82.8869 60.8058 83.0122 60.2469 83.2617 59.7401C83.4941 59.2718 83.8472 58.874 84.2845 58.5877C84.7364 58.3 85.2633 58.1521 85.7989 58.1626C86.2744 58.148 86.7451 58.2628 87.1605 58.4947C87.523 58.701 87.8218 59.0032 88.0239 59.3681C88.2231 59.7301 88.326 60.1372 88.3228 60.5504C88.3228 60.6002 88.3228 60.6633 88.3228 60.7397C88.3228 60.816 88.3228 60.8924 88.3228 60.9655C88.3186 61.0307 88.3075 61.0953 88.2896 61.1581H83.9724L84.0089 60.5736H87.1273C87.1337 60.2504 87.0866 59.9283 86.9878 59.6205C86.9109 59.3706 86.7562 59.1518 86.5461 58.9962C86.3046 58.8364 86.0183 58.7584 85.7291 58.7737C85.4423 58.7626 85.1584 58.8353 84.9122 58.9829C84.6967 59.1229 84.5197 59.3147 84.3974 59.5408C84.2708 59.7793 84.1812 60.0358 84.1318 60.3013C84.0794 60.5682 84.0527 60.8396 84.0521 61.1116C84.0465 61.5486 84.1161 61.9834 84.258 62.3968C84.3794 62.7609 84.6116 63.0779 84.9222 63.3034C85.2931 63.5427 85.73 63.6589 86.1708 63.6355C86.445 63.6389 86.7178 63.5963 86.9778 63.5093C87.209 63.4331 87.4316 63.3329 87.642 63.2104C87.8113 63.1098 87.9744 62.9989 88.1302 62.8783H88.2863V63.5226C87.9534 63.783 87.5884 63.9995 87.2003 64.1669C86.7544 64.3665 86.2709 64.4684 85.7823 64.4657Z" fill="white"/>
<path d="M94.4606 62.8419H94.6299V63.4795C94.32 63.7325 93.9864 63.9549 93.6337 64.1437C93.2192 64.3689 92.7537 64.4833 92.282 64.4758C91.7604 64.4909 91.2457 64.3536 90.8009 64.0806C90.3847 63.8172 90.051 63.442 89.8378 62.998C89.6073 62.5047 89.4937 61.9649 89.5058 61.4206C89.5013 60.9706 89.5918 60.5247 89.7714 60.1121C89.9432 59.7258 90.1879 59.3763 90.4921 59.0826C90.7913 58.7996 91.1404 58.5744 91.5216 58.4184C91.9014 58.26 92.3089 58.1787 92.7204 58.1793C92.9809 58.176 93.2408 58.205 93.4942 58.2657C93.6878 58.3126 93.8768 58.3771 94.0587 58.4583L94.4307 58.6343L94.3908 59.7667H94.1384C93.9392 59.6505 93.7466 59.531 93.554 59.4048C93.3565 59.2711 93.1449 59.1598 92.923 59.0727C92.6686 58.9813 92.3996 58.9374 92.1293 58.9432C91.9683 58.9488 91.8096 58.9837 91.661 59.0461C91.5008 59.102 91.3562 59.1954 91.2393 59.3184C91.1447 59.4276 91.0623 59.5468 90.9935 59.6738C90.8966 59.8563 90.8272 60.0521 90.7876 60.2549C90.727 60.5655 90.6992 60.8817 90.7046 61.1981C90.6666 61.8345 90.8445 62.4652 91.2094 62.9881C91.3861 63.2042 91.6116 63.3754 91.8674 63.4874C92.1231 63.5994 92.4018 63.6491 92.6806 63.6323C92.9248 63.6328 93.1669 63.5878 93.3946 63.4995C93.6075 63.4179 93.8103 63.312 93.999 63.184C94.175 63.0478 94.3311 62.9382 94.4606 62.8419Z" fill="white"/>
<path d="M99.608 58.3157L99.5715 58.9533H97.4793V62.8753C97.4767 62.9564 97.4934 63.0369 97.528 63.1102C97.5627 63.1836 97.6143 63.2476 97.6786 63.2971C97.8172 63.4057 97.9765 63.4848 98.1468 63.5295C98.2934 63.5738 98.4453 63.5984 98.5985 63.6026C98.7545 63.6004 98.9097 63.5781 99.0601 63.5362C99.1888 63.5075 99.3145 63.4663 99.4353 63.4133H99.6246V63.8716C99.5037 63.9456 99.3784 64.0122 99.2494 64.0708C99.0541 64.1682 98.8521 64.2515 98.6449 64.3199C98.4259 64.3958 98.1959 64.4351 97.9642 64.4361C97.6897 64.4391 97.4171 64.3907 97.1605 64.2933C96.9314 64.2089 96.727 64.0685 96.566 63.8849C96.4164 63.7041 96.3373 63.4752 96.3435 63.2406V58.9533H95.3672V58.4253C95.5797 58.3921 95.7657 58.3555 95.9218 58.3157C96.0697 58.2832 96.2021 58.2012 96.297 58.0832C96.4062 57.9166 96.4629 57.7211 96.4598 57.522L96.5162 56.6984L97.466 56.519V58.3024L99.608 58.3157Z" fill="white"/>
<path d="M103.311 64.4659C102.798 64.4742 102.292 64.3519 101.84 64.1106C101.399 63.8685 101.039 63.5025 100.804 63.0579C100.534 62.5318 100.402 61.9454 100.422 61.3542C100.413 60.7891 100.54 60.2302 100.791 59.7237C101.023 59.2563 101.374 58.8587 101.81 58.5713C102.263 58.2836 102.791 58.1358 103.328 58.1462C103.803 58.1319 104.274 58.2467 104.689 58.4783C105.051 58.6856 105.35 58.9875 105.553 59.3517C105.752 59.7137 105.855 60.1208 105.852 60.534C105.852 60.5838 105.852 60.6469 105.852 60.7233C105.852 60.7996 105.852 60.876 105.852 60.9491C105.847 61.014 105.837 61.0784 105.822 61.1417H101.504L101.538 60.5572H104.656C104.662 60.2343 104.616 59.9125 104.52 59.6041C104.442 59.3548 104.287 59.1364 104.078 58.9798C103.836 58.8207 103.55 58.7427 103.261 58.7573C102.973 58.7461 102.688 58.8188 102.441 58.9665C102.226 59.1066 102.051 59.2985 101.93 59.5244C101.802 59.7627 101.711 60.0192 101.661 60.2849C101.608 60.5475 101.579 60.8142 101.574 61.0819C101.568 61.5188 101.636 61.9535 101.777 62.3671C101.899 62.7307 102.131 63.0474 102.441 63.2737C102.813 63.5128 103.251 63.629 103.693 63.6058C103.967 63.6093 104.24 63.5666 104.5 63.4796C104.731 63.4034 104.954 63.3032 105.164 63.1807C105.332 63.0785 105.495 62.9677 105.652 62.8487H105.808V63.4929C105.474 63.7533 105.108 63.9698 104.719 64.1372C104.279 64.3458 103.799 64.4579 103.311 64.4659Z" fill="white"/>
<path d="M107.192 64.0708V62.6395H107.857L108.036 63.1841C108.059 63.2542 108.096 63.3186 108.145 63.3734C108.188 63.4236 108.238 63.4663 108.295 63.4996C108.465 63.5877 108.644 63.6567 108.83 63.7055C109.032 63.7605 109.241 63.7885 109.451 63.7885C109.659 63.7885 109.866 63.7572 110.065 63.6955C110.26 63.638 110.437 63.5343 110.583 63.3933C110.723 63.2332 110.796 63.0254 110.788 62.8128C110.779 62.6003 110.689 62.3991 110.537 62.2509C110.323 62.0963 110.082 61.9836 109.826 61.9188C109.617 61.8557 109.407 61.7926 109.198 61.7362L108.581 61.5602C108.199 61.4616 107.86 61.2441 107.611 60.9391C107.388 60.6554 107.271 60.3034 107.279 59.9429C107.275 59.5957 107.4 59.2595 107.631 58.9997C107.881 58.7139 108.197 58.4929 108.551 58.3555C108.937 58.1971 109.352 58.117 109.769 58.1197C110.08 58.1157 110.39 58.1402 110.696 58.1927C110.965 58.2426 111.237 58.3056 111.52 58.382L111.543 59.8366H110.879L110.693 59.2521C110.673 59.1887 110.638 59.1315 110.59 59.0861C110.543 59.043 110.49 59.0062 110.434 58.9765C110.3 58.9113 110.158 58.8644 110.012 58.837C109.852 58.8074 109.69 58.7929 109.527 58.7938C109.229 58.7826 108.934 58.8527 108.674 58.9964C108.567 59.0579 108.479 59.1479 108.42 59.2564C108.362 59.3649 108.334 59.4876 108.341 59.6108C108.333 59.731 108.353 59.8516 108.398 59.9632C108.444 60.0748 108.514 60.1746 108.604 60.255C108.846 60.4396 109.123 60.5739 109.417 60.6502L109.949 60.8096L110.46 60.9624C110.85 61.0607 111.211 61.2509 111.513 61.517C111.634 61.648 111.727 61.802 111.786 61.9697C111.846 62.1375 111.872 62.3155 111.862 62.4933C111.871 62.877 111.738 63.2506 111.49 63.5428C111.229 63.8396 110.9 64.0677 110.53 64.2069C110.137 64.3644 109.718 64.4444 109.295 64.4427C108.91 64.4467 108.526 64.4032 108.152 64.3132C107.793 64.2634 107.478 64.1737 107.192 64.0708Z" fill="white"/>
<path d="M27.0918 70.8519H81.4721" stroke="white" stroke-miterlimit="10"/>
</svg>
