<svg width="25" height="25" viewBox="0 0 25 25" fill="none" xmlns="http://www.w3.org/2000/svg">
<path d="M19.0239 7.00872H9.01141C7.91003 7.00872 7.00891 7.90985 7.00891 9.01122V19.0237C7.00891 20.1251 7.91003 21.0262 9.01141 21.0262H19.0239C20.1253 21.0262 21.0264 20.1251 21.0264 19.0237V9.01122C21.0264 7.90985 20.1253 7.00872 19.0239 7.00872ZM19.0239 9.01122V11.0137H9.01141V9.01122H19.0239ZM13.0164 15.0187V13.0162H15.0189V15.0187H13.0164ZM15.0189 17.0212V19.0237H13.0164V17.0212H15.0189ZM11.0139 15.0187H9.01141V13.0162H11.0139V15.0187ZM17.0214 13.0162H19.0239V15.0187H17.0214V13.0162ZM9.01141 17.0212H11.0139V19.0237H9.01141V17.0212ZM17.0214 19.0237V17.0212H19.0239V19.0237H17.0214ZM6.00766 17.0212H5.00641C3.90503 17.0212 3.00391 16.1201 3.00391 15.0187V5.00622C3.00391 3.90485 3.90503 3.00372 5.00641 3.00372H15.0189C16.1203 3.00372 17.0214 3.90485 17.0214 5.00622V6.00747H15.0189V5.00622H5.00641V15.0187H6.00766V17.0212Z" fill="#000000"/>
</svg>
