<svg width="24" height="24" viewBox="0 0 24 24" fill="none" xmlns="http://www.w3.org/2000/svg">
<mask id="mask0_104_4629" style="mask-type:alpha" maskUnits="userSpaceOnUse" x="0" y="0" width="24" height="24">
<rect width="24" height="24" fill="#D9D9D9"/>
</mask>
<g mask="url(#mask0_104_4629)">
<mask id="mask1_104_4629" style="mask-type:alpha" maskUnits="userSpaceOnUse" x="0" y="0" width="24" height="24">
<rect width="24" height="24" fill="#D9D9D9"/>
</mask>
<g mask="url(#mask1_104_4629)">
<path d="M6.49998 19.5C5.11794 19.5 3.9391 19.0198 2.96345 18.0596C1.98782 17.0993 1.5 15.9282 1.5 14.5461C1.5 13.3231 1.89167 12.2352 2.675 11.2827C3.45833 10.3301 4.45769 9.76667 5.67308 9.59232C5.99359 8.09744 6.74519 6.875 7.92788 5.925C9.11056 4.975 10.4679 4.5 12 4.5C13.8089 4.5 15.3445 5.13109 16.6067 6.39327C17.8689 7.65544 18.5 9.19101 18.5 11V11.5H18.8077C19.8615 11.582 20.7403 12.0058 21.4442 12.7711C22.148 13.5365 22.5 14.4461 22.5 15.5C22.5 16.6153 22.1121 17.5608 21.3365 18.3365C20.5609 19.1121 19.6153 19.5 18.5 19.5H6.49998Z" fill="#113757"/>
</g>
</g>
</svg>
