<svg width="24" height="24" viewBox="0 0 24 24" fill="none" xmlns="http://www.w3.org/2000/svg">
<mask id="mask0_104_3146" style="mask-type:alpha" maskUnits="userSpaceOnUse" x="0" y="2" width="24" height="24">
<rect y="2" width="24" height="24" fill="#D9D9D9"/>
</mask>
<g mask="url(#mask0_104_3146)">
<path d="M7.8077 20.8846C7.30898 20.8846 6.88302 20.7079 6.52982 20.3547C6.17661 20.0015 6 19.5756 6 19.0768V6.38457H5V4.8846H9.49997V4H15.5V4.8846H20V6.38457H19V19.0768C19 19.582 18.825 20.0095 18.475 20.3595C18.125 20.7095 17.6974 20.8846 17.1922 20.8846H7.8077ZM17.5 6.38457H7.49997V19.0768C7.49997 19.1666 7.52882 19.2403 7.58652 19.298C7.64422 19.3557 7.71795 19.3846 7.8077 19.3846H17.1922C17.2692 19.3846 17.3397 19.3525 17.4038 19.2884C17.4679 19.2243 17.5 19.1538 17.5 19.0768V6.38457ZM9.90385 17.3846H11.4038V8.38457H9.90385V17.3846ZM13.5961 17.3846H15.0961V8.38457H13.5961V17.3846Z" fill="#F7F9FD"/>
</g>
</svg>
